<svg enable-background="new 0 0 32 32" viewBox="0 0 32 32" xmlns="http://www.w3.org/2000/svg"><path clip-rule="evenodd" d="m23 19.3c.4.3 1.1.2 1.4-.3.2-.3.2-.5.2-.8-.1-.3-.3-.5-.4-.7-.6-.3-1.2-.8-1.8-1 .8-.9 1.5-1.8 1.9-2.9.4-1.3.7-2.6.7-3.9 0-5.4-4.2-9.7-9.4-9.7s-9.3 4.4-9.3 9.7c0 2.6 1 5 2.8 6.8-5.6 2.6-9.1 8.3-9.1 14.5 0 .6.4 1 1 1s1-.4 1-1c0-5.8 3.5-11 8.7-12.9 2.9 1.8 6.7 1.7 9.6 0 1 .3 1.9.7 2.7 1.2zm-7.4-2c-4 0-7.3-3.4-7.3-7.5s3.3-7.5 7.3-7.5 7.3 3.4 7.3 7.5c0 1-.2 2.1-.6 3-.3.9-.9 1.6-1.6 2.3-1.4 1.4-3.2 2.2-5.1 2.2zm16.1 9s-.1 0-.1-.1l-4.1-4.1c-.4-.4-1-.4-1.4 0s-.4 1 0 1.4l2.4 2.4h-7.5c-.6 0-1 .4-1 1s.4 1 1 1h7.8l-2.4 2.5c-.4.4-.4 1 0 1.4s1 .4 1.3 0l3.8-3.9c.1 0 .1-.1.2-.1.2-.2.3-.5.3-.7 0-.3-.1-.6-.3-.8z" fill="#fff" fill-rule="evenodd"/></svg>