<svg enable-background="new 0 0 100 100" viewBox="0 0 100 100" xmlns="http://www.w3.org/2000/svg"><path d="m56.3 49.7c-1.1 0-2.2 1.1-2.2 2.2s1.1 2.2 2.2 2.2c1.7 0 2.7-1.1 2.7-2.2.1-1.1-1-2.2-2.7-2.2zm-22.5-15.7c-1.6 0-3.3 1.1-3.3 2.7s1.7 2.7 3.3 2.7 2.7-1.1 2.7-2.7c.1-1.6-1-2.7-2.7-2.7zm34.6 15.7c-1.1 0-2.2 1.1-2.2 2.2s1.1 2.2 2.2 2.2c1.6 0 2.7-1.1 2.7-2.2s-1.1-2.2-2.7-2.2zm-19.2-10.3c1.7 0 2.7-1.1 2.7-2.7s-1.1-2.7-2.7-2.7-3.3 1.1-3.3 2.7 1.6 2.7 3.3 2.7zm.8-39.4c-27.6 0-50 22.4-50 50s22.4 50 50 50 50-22.4 50-50-22.4-50-50-50zm-9.1 61.7c-2.7 0-4.9-.6-7.7-1.1l-7.7 3.8 2.2-6.5c-5.5-3.8-8.8-8.7-8.8-14.7 0-10.3 9.9-18.5 21.9-18.5 10.8 0 20.2 6.5 22.1 15.3-.7-.1-1.4-.1-2.1-.1-10.4 0-18.7 7.7-18.7 17.2 0 1.6.2 3.1.7 4.6-.5 0-1.2 0-1.9 0zm32.4 7.6 1.7 5.4-6-3.3c-2.2.5-4.4 1.1-6.6 1.1-10.4 0-18.7-7.1-18.7-15.8s8.2-15.8 18.7-15.8c9.8.1 18.6 7.2 18.6 15.9 0 4.9-3.3 9.2-7.7 12.5z" fill="#22e570"/></svg>