<svg enable-background="new 0 0 55 55" viewBox="0 0 55 55" xmlns="http://www.w3.org/2000/svg"><path clip-rule="evenodd" d="m51.4 17.1-8.5 31.5c-.6 2-2.8 3.3-4.9 2.8l-3.3-.8v-.1h-27.2c-2.2 0-4-1.8-4-4v-34c0-2.2 1.8-4 4-4h4v2h-4c-1.1 0-2 .9-2 2v34c0 1.1.9 2 2 2h29c1.1 0 2-.9 2-2v-34c0-1.1-.9-2-2-2h-4v-2h4c1.4 0 2.7.8 3.4 1.9l8.6 2.1c2.1.5 3.4 2.6 2.9 4.6zm-3.4-2.8-7.5-1.8v34c0 1.2-.6 2.3-1.5 3.1.9 0 1.7-.6 1.9-1.4l8.5-31.5c.3-1.1-.4-2.1-1.4-2.4zm-18.5 21.2h-15c-.6 0-1-.4-1-1s.4-1 1-1h15c.6 0 1 .4 1 1s-.4 1-1 1zm0-10h-15c-.6 0-1-.4-1-1s.4-1 1-1h15c.6 0 1 .4 1 1s-.4 1-1 1zm-4.5-11h-6c-3 0-5.5-2.5-5.5-5.5s2.5-5.5 5.5-5.5h6c3 0 5.5 2.5 5.5 5.5s-2.5 5.5-5.5 5.5zm0-9h-6c-1.9 0-3.5 1.6-3.5 3.5s1.6 3.5 3.5 3.5h6c1.9 0 3.5-1.6 3.5-3.5s-1.6-3.5-3.5-3.5z" fill="#fff" fill-rule="evenodd"/></svg>