<svg enable-background="new 0 0 32 32" viewBox="0 0 32 32" xmlns="http://www.w3.org/2000/svg"><g fill="#569df6"><g clip-rule="evenodd" fill-rule="evenodd"><path d="m25.8 17.9c1.6-1.3 2.5-3.1 2.5-5.4 0-3.6-2.8-6.5-6.6-7.2-.3-.1-.5.5-.4.6s.3.2.6.3c2.8 1 4.8 3.4 4.8 6.3 0 2-.9 3.7-2.4 4.9l.3 1.3s.1 0 .1-.1l.1.3c1 1 5.1 5.2 5.1 6.9 0 1.3-.8 1.7-2.1 1.7 0 0 0 0-.1 0h-.1-.1c-.1.1-.1.1-.1.2 0 .2.1.3.3.3 2.3 0 3.8-.3 3.8-2.4 0-2.6-2.5-6.3-5.7-7.7zm-6.6-.3c1.3-1.2 2.2-2.8 2.5-4.7l-.9-5.6c-1.5-2.6-4.2-4.4-7.4-4.4-4.7 0-8.5 3.8-8.5 8.5 0 2.4 1 4.6 2.6 6.1-4.1 1.7-6.9 5-6.9 8.7 0 3.5 5.7 2.8 12.7 2.8s12.7.3 12.7-2.8c-.1-3.6-2.8-6.9-6.8-8.6zm-12.4-6.2c0-3.6 2.9-6.5 6.5-6.5s6.5 2.9 6.5 6.5-2.9 6.5-6.5 6.5c-3.5 0-6.5-2.9-6.5-6.5zm7 15.5c-5.3 0-11 1-11-1.1 0-3.3 1.5-5.9 7-6.7 1.1.5 2.2.8 3.5.8 1.2 0 2.4-.3 3.5-.7 5 1 7.1 4.3 7.1 6.6 0 1.7-3.4 1.1-10.1 1.1z"/><path d="m25.1 19.3-.2-.8"/><path d="m25.1 19.3-.8-.8.8-.8.7.8z"/><path d="m24.9 18.5h-.6l-.1-1.1h.7z"/></g><path d="m13.3 4.9c3.6 0 6.5 2.9 6.5 6.5s-2.9 6.6-6.5 6.6-6.5-3-6.5-6.6 2.9-6.5 6.5-6.5m0-2c-4.7 0-8.5 3.8-8.5 8.5s3.8 8.6 8.5 8.6 8.5-3.8 8.5-8.5-3.8-8.6-8.5-8.6z"/></g></svg>