<svg enable-background="new 0 0 55 55" viewBox="0 0 55 55" xmlns="http://www.w3.org/2000/svg"><g fill="#fff"><path d="m53 40h-9v9c0 .6-.4 1-1 1s-1-.4-1-1v-9h-9c-.6 0-1-.4-1-1s.4-1 1-1h9v-9c0-.6.4-1 1-1s1 .4 1 1v9h9c.6 0 1 .4 1 1s-.4 1-1 1zm-16.1-13.3c-.6.3-1.6.9-2.8 1.5-.8-.1-1.7-.2-2.5-.2-11.4 0-20.6 9.2-20.6 20.5h-2c0-10.6 7.3-19.4 17.1-21.8-3.6-1.9-6.1-5.8-6.1-10.2 0-6.4 5.1-11.5 11.5-11.5s11.5 5.1 11.5 11.5c0 4.4-2.5 8.2-6.1 10.2zm-5.4-19.7c-5.2 0-9.5 4.3-9.5 9.5s4.3 9.5 9.5 9.5 9.5-4.3 9.5-9.5-4.3-9.5-9.5-9.5zm-14.8 19.8c-6.8 1-12.6 6.7-13.5 13.5l-2.2 2.2c0-8 5.4-14.7 12.7-16.8-2.8-1.7-4.7-4.7-4.7-8.2 0-5.2 4.3-9.5 9.5-9.5v2c-4.1 0-7.5 3.4-7.5 7.5s3.4 7.5 7.5 7.5v2c-.6 0-1.2-.1-1.8-.2z"/><circle cx="18.5" cy="9" r="1"/><circle cx="18.5" cy="26" r="1"/><circle cx="34.6" cy="26.9" r="1.3"/><ellipse cx="34.4" cy="28" rx=".7" ry=".2"/></g></svg>