<svg enable-background="new 0 0 24 24" viewBox="0 0 24 24" xmlns="http://www.w3.org/2000/svg"><path clip-rule="evenodd" d="m10.4.1c7.8-1 14.5 5.6 13.5 13.5-.7 5.3-5 9.7-10.3 10.3-7.8 1-14.5-5.6-13.5-13.5.7-5.3 5-9.6 10.3-10.3z" fill="#f49e51" fill-rule="evenodd"/><path d="m12 10.5c1.1 1.5 3 2.5 5 2.5.6 0 1.1-.1 1.6-.2l-2 6.2h-8.3l-2.5-6.1c.4.1.8.1 1.2.1 2 0 3.9-.9 5-2.5m0-7.5c-1.1 0-2 .9-2 2 0 .7.4 1.4 1 1.7l-.4 2.3c-.6 1.2-2 2-3.6 2-.9 0-1.8-.3-2.4-.8.2-.3.4-.7.4-1.2 0-1.1-.9-2-2-2s-2 .9-2 2c0 1 .8 1.9 1.8 2l4.2 10h11l3.3-10c.9-.2 1.7-1 1.7-2 0-1.1-.9-2-2-2s-2 .9-2 2c0 .5.2.9.4 1.2-.6.5-1.5.8-2.4.8-1.6 0-3-.8-3.6-2l-.4-2.3c.6-.3 1-1 1-1.7 0-1.1-.9-2-2-2z" fill="#f7f8f8"/></svg>