<svg enable-background="new 0 0 55 55" viewBox="0 0 55 55" xmlns="http://www.w3.org/2000/svg"><path clip-rule="evenodd" d="m50.4 44-7.1 7.1c-.1.1-.3.2-.4.3v-2.7l5.1-5.1h-.1-12.9c-.6 0-1-.4-1-1s.4-1 1-1h13 .1l-5.1-5.1v-2.7c.1.1.3.2.4.3l7.1 7.1c.7.8.7 2.1-.1 2.8zm-11.5-13.1c-1.2-.8-2.5-1.4-3.9-1.9-2.3 1.6-5.1 2.6-8.1 2.6-2.9 0-5.5-.9-7.7-2.3-7.8 3.2-13.2 10.9-13.2 19.8h-2c0-9.4 5.5-17.5 13.5-21.2-2.8-2.6-4.5-6.2-4.5-10.3 0-7.7 6.3-14 14-14s14 6.3 14 14c0 3.9-1.6 7.4-4.2 10 1.5.7 3 1.5 4.3 2.4-.8.2-1.5.5-2.2.9zm.1-13.3c0-6.6-5.4-12-12-12s-12 5.4-12 12 5.4 12 12 12 12-5.4 12-12z" fill="#fff" fill-rule="evenodd"/></svg>