<svg enable-background="new 0 0 88 88" viewBox="0 0 88 88" xmlns="http://www.w3.org/2000/svg"><g fill="#ccc"><path d="m44 0c-.1 0-.1 0 0 0-.1 0-.1 0-.1 0s0 0-.1 0 0 0-.1 0 0 0-.1 0 0 0-.1 0h-.1c-.7 0-1.4.1-2.1.1l.1 1s1.3-.1 2.6-.1zm-6 .4c-1.1.2-2.2.3-3.3.6h-.1-.1s0 0-.1 0l.2 1c1.3-.3 2.6-.5 3.8-.7zm-5.9 1.2c-1.3.4-2.6.8-3.8 1.3l.4.9c1.2-.5 2.5-.9 3.7-1.2zm-5.6 2c-.1 0-.2.1-.3.1h-.1-.1s-.1 0-.1.1-.1 0-.1.1h-.1-.1s0 0-.1 0 0 0-.1 0c-.2.1-.4.2-.7.3l.5.9c1.1-.6 2.3-1.2 3.5-1.7zm-5.3 2.8c-.5.3-1 .6-1.4.9s-.1 0-.1.1c-.5.3-.9.6-1.3 1l.6.8c1-.8 2.1-1.5 3.2-2.2zm-4.9 3.4c-.1.1-.1.1 0 0-.1.1-.1.1-.1.1s-.1 0-.1.1c-.7.6-1.4 1.2-2.1 1.9-.1.1-.2.2-.3.3l.7.7c.9-.9 1.9-1.8 2.9-2.6zm-4.4 4.1c-.2.2-.3.3-.5.5-.6.7-1.2 1.4-1.8 2.2l.8.6c.8-1 1.7-2 2.5-3zm-3.8 4.7c-.1 0-.1 0 0 0-.1.1-.1.1 0 0-.1.1-.1.1-.1.1v.1c-.7 1-1.4 2-2 3.1l.9.5c.7-1.1 1.4-2.2 2.1-3.3zm-3.1 5.1c-.5 1-1 2-1.4 3v.1.1l.9.4c.5-1.2 1-2.4 1.6-3.5zm-2.4 5.5c-.1 0-.1 0 0 0-.1.1-.1.1 0 0-.3.6-.5 1.2-.6 1.8v.2.1.1c-.1.3-.2.6-.3 1l1 .2c.3-1.3.7-2.5 1.1-3.7zm-1.7 5.7c0 .2-.1.3-.1.5v.1.1c0 .2-.1.3-.1.5v.1.1c-.1.5-.2 1.1-.2 1.6l1 .1c.1-1.3.4-2.6.6-3.9zm-.8 6c0 .4 0 .7-.1 1.1h1c0-.3 0-.6 0-.9 0-1 0-2 .1-3.1zm1 5.9-1 .1v.1c.1.9.2 1.8.3 2.7v.1c0 .2.1.5.1.7l1-.2c-.2-.9-.3-2.2-.4-3.5zm.8 5.8-1 .2c.1.3.1.5.2.8v.1.1c.2.7.3 1.3.5 1.9 0 .2.1.3.1.5l1-.3c-.3-.7-.6-2-.8-3.3zm1.5 5.7-.9.3v.1c.1.3.2.5.3.8.2.4.2.5.2.6v.1.1c0 .1 0 .1.1.2.1.3.2.5.3.8 0 .1.1.2.1.3l.9-.4c-.1-.5-.5-1.7-1-2.9zm2.3 5.3-.9.5v.1.1.1s0 .1.1.1c.5.8.9 1.6 1.4 2.4l1.4.1c-.7-1.1-1.4-2.2-2-3.4zm3.1 5.1-.8.5s0 .1.1.1c0 .1.1.1.1.2s.1.1.1.2c.1.1.1.2.2.2v.1s.1.1.1.1c0 .1.1.1.1.2s.1.1.1.1 0 .1.1.1 0 .1.1.1v.1s0 .1.1.1.1.1.1.1c.1.1.2.2.3.4l.8-.6c0 .1-.8-1-1.5-2zm3.7 4.5-.7.7c.1.1.2.2.2.2s.1.1.1.1l1.4 1.4s.1.1.1.1l.2.2.7-.7c-.2-.1-1.2-1-2-2zm4.2 4-.6.8c1 .8 2.1 1.6 3.2 2.4l.6-.8c-1.1-.7-2.2-1.5-3.2-2.4zm4.8 3.4-.5.9c.1.1.3.2.4.2s.1 0 .1.1.1 0 .1.1.1 0 .1.1.1 0 .1.1h.1c.7.4 1.4.8 2.1 1.1h.1l.4-.9c-.8-.3-1.9-1-3-1.7zm5.2 2.8-.4.9c.5.2 1.1.5 1.6.7.6.2 1.2.4 1.8.6l.3-.9c-.9-.3-2.1-.8-3.3-1.3zm5.5 2-.3 1c1.1.3 2.2.6 3.4.8h.1.1.2l.2-1c-1.2-.2-2.5-.5-3.7-.8zm5.7 1.2-.1 1c1.3.2 2.6.3 3.9.4l.1-1c-1.3-.1-2.6-.2-3.9-.4zm9.8.2c-1.2.1-2.5.2-3.7.2h-.2v1h.1.1.1.1.1.1.1.1.1.1.1c.4 0 .8-.1 1.2-.1zm5.8-.8c-1.3.3-2.6.5-3.8.7l.1 1c1.3-.2 2.6-.4 3.9-.7zm5.6-1.7c-1.2.5-2.5.9-3.7 1.2l.3 1c.2-.1.4-.1.7-.2h.1.1.1.1c.1 0 .1 0 .2-.1.7-.2 1.4-.5 2.1-.7zm5.3-2.4c-1.1.6-2.3 1.2-3.5 1.7l.4.9c1.1-.5 2.1-1 3.1-1.5h.1zm5-3.2c-1 .8-2.1 1.5-3.3 2.2l.5.9c1.1-.7 2.3-1.4 3.3-2.2zm4.4-3.7c-.9.9-1.9 1.8-2.9 2.6l.6.8c.3-.2.6-.5.9-.7s.1 0 .1-.1.1-.1.1-.1c.1 0 .1-.1.2-.1s.1-.1.1-.1 0 0 .1-.1c.2-.2.5-.4.7-.6zm4-4.4c-.8 1-1.7 2-2.6 3l.7.7c.2-.3.5-.5.7-.8s.1-.1.1-.1c.5-.6 1-1.1 1.4-1.7zm3.3-4.8c-.7 1.1-1.4 2.2-2.1 3.3l.8.6c.5-.6.9-1.3 1.3-1.9s0-.1.1-.1 0 0 0-.1 0 0 0 0 .1-.1.1-.1c.1-.2.2-.4.3-.6zm2.6-5.3c-.5 1.2-1.1 2.4-1.7 3.5l.9.5c.4-.7.7-1.4 1.1-2.1.2-.4.3-.8.5-1.2zm1.9-5.5c-.3 1.3-.7 2.5-1.2 3.7l.9.3c.1-.2.1-.3.2-.5v-.1-.1c.2-.6.4-1.2.5-1.7 0-.2.1-.3.1-.5zm1.1-5.8c-.2 1.3-.4 2.6-.6 3.9l1 .2v-.1s0 0 0-.1c.2-1.2.4-2.4.6-3.6zm1.3-5.8h-1v.6c0 1.1 0 2.2-.1 3.3l1 .1c0-.3 0-.6.1-.9s0 0 0-.1 0 0 0-.1 0 0 0-.1 0 0 0-.1 0 0 0-.1 0 0 0-.1 0 0 0-.1 0 0 0-.1 0 0 0-.1 0 0 0-.1v-.1c0-1.9 0-1.9 0-2zm-.5-6-1 .1c.2 1.3.3 2.6.4 3.9l1-.1c-.1-1.3-.2-2.6-.4-3.9zm-1.3-5.9-1 .3c.4 1.2.7 2.5.9 3.8l1-.2c-.1-.3-.1-.5-.2-.8-.2-1.2-.4-2.1-.7-3.1zm-2.1-5.6-.9.4c.5 1.2 1 2.4 1.4 3.6l.9-.3c0-.1-.1-.2-.1-.2s0 0 0-.1c-.2-.6-.4-1.1-.6-1.7v-.1c-.4-.9-.5-1.2-.7-1.6zm-2.8-5.3-.8.5c.7 1.1 1.3 2.2 1.9 3.4l.9-.5c0-.1-.1-.1-.1-.2v-.1s0 0 0-.1-.1-.1-.1-.2-.1-.2-.1-.2c-.1-.2-.2-.3-.3-.5 0-.1-.1-.1-.1-.2s-.1-.1-.1-.1 0 0 0-.1 0 0 0-.1 0 0 0-.1 0 0 0-.1c-1-1-1.1-1.2-1.2-1.4zm-3.5-4.8-.8.6c.8 1 1.6 2 2.4 3.1l.8-.6c-.4-.6-.8-1.1-1.2-1.6s0 0 0-.1 0-.1-.1-.1 0 0 0-.1c-1-1.1-1.1-1.2-1.1-1.2zm-4.2-4.3-.7.7c1 .9 1.9 1.8 2.8 2.8l.7-.7c-.1-.1-.2-.2-.2-.3-.2-.2-.4-.4-.6-.6-.1-.1-.1-.1-.2-.2-1-1-1.4-1.4-1.8-1.7zm-4.7-3.8-.6.8c1.1.7 2.1 1.5 3.1 2.4l.6-.8c-.6-.5-1.2-.9-1.7-1.4-.8-.6-1.1-.8-1.4-1zm-5.1-3-.4.9c1.2.6 2.3 1.2 3.4 1.9l.5-.8c-.6-.4-1.2-.7-1.8-1-.1 0-.1-.1-.2-.1s0 0-.1 0h-.1c-1.2-.9-1.2-.9-1.3-.9zm-5.6-2.3-.3.9c1.2.4 2.5.9 3.6 1.4l.5-.9c-1.3-.5-2.5-1-3.8-1.4zm-5.8-1.6-.2 1c1.3.2 2.6.5 3.8.9l.3-1c-.1 0-.1 0-.2-.1h-.1c-.1 0-.1 0-.2 0s-.2-.1-.3-.1h-.1-.1-.1c-1.5-.4-2.1-.6-2.8-.7zm-5.9-.7-.1 1c1.3.1 2.6.2 3.9.4l.1-1c-.3-.1-.7-.1-1-.1h-.1s0 0-.1 0h-.1c-.3 0-.5 0-.8-.1h-.1c-1.2-.2-1.4-.2-1.7-.2zm-2.5-.1v1h.5v-1c-.1 0-.1 0-.2 0-.2 0-.2 0-.3 0z"/><path clip-rule="evenodd" d="m69 42h-23v-23c0-1.1-.9-2-2-2s-2 .9-2 2v23h-23c-1.1 0-2 .9-2 2s.9 2 2 2h23v23c0 1.1.9 2 2 2s2-.9 2-2v-23h23c1.1 0 2-.9 2-2s-.9-2-2-2z" fill-rule="evenodd"/></g></svg>