<svg enable-background="new 0 0 32 32" viewBox="0 0 32 32" xmlns="http://www.w3.org/2000/svg"><path clip-rule="evenodd" d="m17 16h-2c-.6 0-1 .4-1 1s.4 1 1 1h2c.6 0 1-.4 1-1s-.4-1-1-1zm0 5h-2c-.6 0-1 .4-1 1s.4 1 1 1h2c.6 0 1-.4 1-1s-.4-1-1-1zm-8-9h-2c-.6 0-1 .4-1 1s.4 1 1 1h2c.6 0 1-.4 1-1s-.4-1-1-1zm0 4h-2c-.6 0-1 .4-1 1s.4 1 1 1h2c.6 0 1-.4 1-1s-.4-1-1-1zm0 5h-2c-.6 0-1 .4-1 1s.4 1 1 1h2c.6 0 1-.4 1-1s-.4-1-1-1zm19-18h-4v-2h-2v2h-12v-2h-2v2h-4c-2.2 0-4 1.8-4 4v20c0 2.2 1.8 4 4 4h24c2.2 0 4-1.8 4-4v-20c0-2.2-1.8-4-4-4zm2 24c0 1.1-.9 2-2 2h-24c-1.1 0-2-.9-2-2v-20c0-1.1.9-2 2-2h4v2h2v-2h12v2h2v-2h4c1.1 0 2 .9 2 2zm-5-11h-2c-.6 0-1 .4-1 1s.4 1 1 1h2c.6 0 1-.4 1-1s-.4-1-1-1zm0-4h-2c-.6 0-1 .4-1 1s.4 1 1 1h2c.6 0 1-.4 1-1s-.4-1-1-1zm-8 0h-2c-.6 0-1 .4-1 1s.4 1 1 1h2c.6 0 1-.4 1-1s-.4-1-1-1zm8 9h-2c-.6 0-1 .4-1 1s.4 1 1 1h2c.6 0 1-.4 1-1s-.4-1-1-1z" fill="#333" fill-rule="evenodd"/></svg>