<svg enable-background="new 0 0 30 30" viewBox="0 0 30 30" xmlns="http://www.w3.org/2000/svg"><path clip-rule="evenodd" d="m15 29.5c-8 0-14.5-6.5-14.5-14.5s6.5-14.5 14.5-14.5 14.5 6.5 14.5 14.5-6.5 14.5-14.5 14.5z" fill="#fff" fill-rule="evenodd"/><path d="m15 1c7.7 0 14 6.3 14 14s-6.3 14-14 14-14-6.3-14-14 6.3-14 14-14m0-1c-8.3 0-15 6.7-15 15s6.7 15 15 15 15-6.7 15-15-6.7-15-15-15z" fill="#fcbf2d"/><path d="m15 4c6.1 0 11 4.9 11 11s-4.9 11-11 11-11-4.9-11-11 4.9-11 11-11z" style="fill-rule:evenodd;clip-rule:evenodd;fill:#fcbf2d;stroke:#f49e51;stroke-width:2;stroke-miterlimit:10"/><path d="m21.2 13.2c-.1-.1-.3-.2-.6-.3 0 0 0 0-.1 0l-3.3-.3-1.2-2.8s0-.1-.1-.1c0-.1-.1-.1-.1-.2-.1-.1-.2-.2-.3-.2-.1-.3-.3-.3-.5-.3-.3 0-.6.1-.8.3-.1.1-.2.3-.3.5l-1.2 2.8-3.3.3c-.2 0-.4.1-.5.3-.2.2-.3.3-.3.6 0 .2 0 .5.1.7.1.1.2.3.3.4l.5.4c.1.1.2.2.4.3l.5.4c.3.3.6.5 1 .8l-.4 1.3c-.1.2-.1.4-.2.6s-.1.4-.1.6-.1.3-.1.4l-.1.2c0 .2 0 .4.1.5s.2.3.3.4.3.2.5.2h.1c.1 0 .3 0 .4-.1 0 0 .1-.1.3-.1.1-.1.3-.1.4-.2s.3-.2.4-.3h.1l.6-.3c.4-.2.8-.4 1.2-.7l2.8 1.6h.1l.2.1c.1.1.3.1.4.1.2 0 .4 0 .6-.2.1-.1.5-.3.4-.9s0-.1 0-.2l-.1-.4c0-.2-.1-.4-.1-.6s-.1-.4-.1-.6c-.1-.4-.2-.9-.3-1.4l2.2-2c.1-.1.2-.2.3-.3.1-.2.2-.4.2-.6 0-.4-.1-.6-.3-.7" fill="#fff"/></svg>