<svg enable-background="new 0 0 48 48" viewBox="0 0 48 48" xmlns="http://www.w3.org/2000/svg" xmlns:xlink="http://www.w3.org/1999/xlink"><linearGradient id="a" gradientUnits="userSpaceOnUse" x1="24" x2="24" y1="48" y2="0"><stop offset="0" stop-color="#569df6"/><stop offset="1" stop-color="#8257fe"/></linearGradient><g clip-rule="evenodd" fill-rule="evenodd"><circle cx="24" cy="24" fill="url(#a)" r="24"/><path d="m37 35v-13c0-6.8-5.3-12.4-12-12.9v-2.1h-2v2.1c-6.7.5-12 6.1-12 12.9v13h-2v2h9.3c.8 2.3 3 4 5.7 4 2.6 0 4.8-1.7 5.7-4h9.3v-2zm-13 4c-1.5 0-2.8-.8-3.4-2h6.9c-.7 1.2-2 2-3.5 2zm-11-4v-13c0-6.1 4.9-11 11-11s11 4.9 11 11v13z" fill="#fff"/></g></svg>