<svg enable-background="new 0 0 100 100" viewBox="0 0 100 100" xmlns="http://www.w3.org/2000/svg"><path clip-rule="evenodd" d="m50 0c27.6 0 50 22.4 50 50s-22.4 50-50 50-50-22.4-50-50 22.4-50 50-50z" fill="#fa7b59" fill-rule="evenodd"/><path d="m50 74c-1.2 0-2.3-.4-3.2-1-17.9-12.5-24.1-19.6-24.8-28.2v-3.1c.8-9.9 7.4-15 13.3-15.5.8-.2 1.7-.2 2.5-.2 6.1 0 9.3 2.4 12.2 5.6 2.9-3.2 6.1-5.6 12.2-5.6.8 0 1.7 0 2.6.1 5.8.6 12.5 5.6 13.3 15.4v3.1c-.7 8.7-6.9 15.9-24.8 28.3-1 .7-2.1 1.1-3.3 1.1zm-12.2-45.1c-.8 0-1.5 0-2.3.1-4.6.4-9.9 4.6-10.6 12.8v2.9c.6 7.5 6.5 14.1 23.5 26 .9.6 2.1.6 3 0 17-11.9 22.9-18.5 23.5-26.1v-2.9c-.7-8-6-12.2-10.6-12.7-.8-.1-1.5-.1-2.3-.1-5.1 0-7.6 1.9-11.1 5.9l-.9 1.3-1.1-1.3c-3.4-4-6-5.9-11.1-5.9zm0 0" fill="#fff"/></svg>