<svg enable-background="new 0 0 100 100" viewBox="0 0 100 100" xmlns="http://www.w3.org/2000/svg"><path clip-rule="evenodd" d="m50 0c27.6 0 50 22.4 50 50s-22.4 50-50 50-50-22.4-50-50 22.4-50 50-50z" fill="#faa151" fill-rule="evenodd"/><path d="m56 76.5c-.5 0-1-.1-1.5-.2l-.2-.1-18.4-12.4c-.2-.1-.4-.2-.9-.2h-.5c-.2 0-.4 0-.5 0h-5.5c-3.5 0-6.5-3.8-6.5-6.8v-13.8c0-3.4 3.3-5.4 6.5-5.4h5.5c.6 0 1.2-.4 1.8-.8l18.4-13 .3-.1c.5-.1 1-.2 1.5-.2 3.5 0 6.3 2.8 6.3 6.2v40.6c0 3.4-2.8 6.2-6.3 6.2zm-.6-2.8c2.1.4 4.1-1.3 4.1-3.4v-40.6c0-1-.5-2-1.3-2.6s-1.8-.9-2.8-.8l-18 12.7c-1 .7-2.1 1.3-3.5 1.3h-5.5c-1.8 0-3.7 1-3.7 2.7v13.8c0 1.9 2 4.1 3.7 4.1h6 .5c.7 0 1.6.1 2.5.7zm14.9-8.7c-.6 0-1.1-.3-1.3-.8s-.1-1.1.3-1.5c7.8-7.6 7.8-17.9 0-25.6-.4-.3-.5-.9-.4-1.3.1-.5.5-.8 1-1 .5-.1 1 0 1.3.4 8.9 8.8 8.9 20.6 0 29.5-.2.2-.5.3-.9.3zm0 0" fill="#fff"/></svg>