<svg enable-background="new 0 0 32 32" viewBox="0 0 32 32" xmlns="http://www.w3.org/2000/svg"><path clip-rule="evenodd" d="m23 17.8c.7-.7 1.3-1.5 1.8-2.4.2-.3.3-.5.4-.8v-.1c.1-.3.2-.5.3-.8 0-.1 0-.1.1-.2.1-.3.1-.5.2-.8 0-.1 0-.1.1-.2.1-.3.1-.5.1-.8 0-.1 0-.2 0-.2 0-.3.1-.7.1-1.1 0-5.6-4.6-10.2-10.2-10.2s-10.1 4.6-10.1 10.3c0 .4 0 .7.1 1.1v.2c0 .2.1.5.1.8 0 .1 0 .1.1.2.1.3.1.5.2.8 0 .1 0 .1.1.1.1.3.2.5.3.8v.1c.1.3.3.6.4.8.5.9 1.1 1.7 1.8 2.4-5.3 1.8-9 5.7-9 12 0 2.9 7.2 1.5 16 1.5s16 1.6 16-1.5c.1-6.3-3.6-10.2-8.9-12zm-15.2-7.3c0-4.6 3.7-8.2 8.2-8.2 4.6 0 8.2 3.7 8.2 8.2 0 4.6-3.7 8.2-8.2 8.2-4.6 0-8.2-3.7-8.2-8.2zm8.2 18.9c-7.8 0-14.1.8-14.1.5 0-6 3.7-9.3 9-10.6 1.5.9 3.2 1.4 5.1 1.4s3.6-.5 5.1-1.4c5.2 1.2 9 4.6 9 10.6 0 .3-6.3-.5-14.1-.5z" fill="#333" fill-rule="evenodd"/></svg>