<svg enable-background="new 0 0 32 32" viewBox="0 0 32 32" xmlns="http://www.w3.org/2000/svg"><path clip-rule="evenodd" d="m30 10v-5c0-2.2-1.8-4-4-4h-20c-2.2 0-4 1.8-4 4v3h-1c-.6 0-1 .4-1 1s.4 1 1 1h1v3h-1c-.6 0-1 .4-1 1s.4 1 1 1h1v2h-1c-.6 0-1 .4-1 1s.4 1 1 1h1v3h-1c-.6 0-1 .4-1 1s.4 1 1 1h1v3c0 2.2 1.8 4 4 4h20c2.2 0 4-1.8 4-4v-6c1.1 0 2-.9 2-2v-7c0-1.1-.9-2-2-2zm-2 17c0 1.1-.9 2-2 2h-20c-1.1 0-2-.9-2-2v-3h1c.6 0 1-.4 1-1s-.4-1-1-1h-1v-3h1c.6 0 1-.4 1-1s-.4-1-1-1h-1v-2h1c.6 0 1-.4 1-1s-.4-1-1-1h-1v-3h1c.6 0 1-.4 1-1s-.4-1-1-1h-1v-3c0-1.1.9-2 2-2h20c1.1 0 2 .9 2 2v5h-6c-1.1 0-2 .9-2 2v7c0 1.1.9 2 2 2h6zm2-9c0 .6-.4 1-1 1h-6c-.6 0-1-.4-1-1v-5c0-.6.4-1 1-1h6c.6 0 1 .4 1 1z" fill="#333" fill-rule="evenodd"/></svg>