<svg enable-background="new 0 0 32 32" viewBox="0 0 32 32" xmlns="http://www.w3.org/2000/svg"><g clip-rule="evenodd"><path d="m15.1 1h1.8c2.3 4.5 6.7 7.5 11.7 7.5h.4c-.4 12.5-6.1 22.5-13 22.5s-12.6-10-13-22.5h.4c5 0 9.4-3 11.7-7.5z" fill="none" stroke="#999" stroke-miterlimit="10" stroke-width="2"/><path d="m24 12c-.4-.4-.9-.3-1.3.1l-7.7 7.9-3.6-3.7c-.4-.4-1-.4-1.4 0s-.4 1 0 1.4l4.2 4.3c.2.2.6.3.9.2h.1s.1 0 .1-.1c.1 0 .2-.1.2-.1l8.4-8.6c.4-.4.5-1.1.1-1.4z" fill="#999" fill-rule="evenodd"/></g></svg>