<svg enable-background="new 0 0 60 60" viewBox="0 0 60 60" xmlns="http://www.w3.org/2000/svg"><path clip-rule="evenodd" d="m48.1 32.6c3.5-2.2 5.9-6.1 5.9-10.6 0-6.9-5.6-12.5-12.5-12.5-.5 0-.9 0-1.4.1 2.5 3 4 6.8 4 11 0 4.4-1.7 8.4-4.4 11.5 7.5 4.6 12.3 12.7 12.3 19.9 0 1.8-1.4 2.9-3.8 3.5 6.9.2 11.8-.2 11.8-6.5 0-6.4-5-13.7-11.9-16.4zm.9 19.9c0-7.3-5.3-15.7-13.5-19.7 3.4-2.8 5.5-7.1 5.5-11.8 0-8.6-6.9-15.5-15.5-15.5s-15.5 6.9-15.5 15.5c0 4.7 2.1 9 5.5 11.8-8.2 4-13.5 12.4-13.5 19.7 0 4.7 10 4 23.5 4s23.5.7 23.5-4z" fill="#fff" fill-rule="evenodd"/></svg>