<svg enable-background="new 0 0 60 60" viewBox="0 0 60 60" xmlns="http://www.w3.org/2000/svg"><g clip-rule="evenodd" fill="#fff" fill-rule="evenodd" opacity=".6"><path d="m6.5 25.4h2v29c0 1.1.9 2 2 2h39.4c1.1 0 2-.9 2-2v-29h2v29c0 2.2-1.8 4-4 4h-39.4c-2.2 0-4-1.8-4-4v-35z"/><path d="m57.4 30.9c-.1-.1-.2-.3-.3-.4l-25.4-26.4c-.8-.8-2-.8-2.8 0l-25.8 26.8h-2.6c.2-.3.4-.6.6-.8l26.4-27.4c1.6-1.6 4.1-1.6 5.7 0l25.4 26.4c.5.5.9 1.2 1 1.8z"/><path d="m36.9 58.4c0-.3.1-.7.1-1v-17c0-3.9-3.1-7-7-7s-7 3.1-7 7v17c0 .3 0 .7.1 1h-2c0-.3-.1-.7-.1-1v-17c0-5 4-9 9-9s9 4 9 9v17c0 .3 0 .7-.1 1z"/></g></svg>