<svg enable-background="new 0 0 60 60" viewBox="0 0 60 60" xmlns="http://www.w3.org/2000/svg"><path clip-rule="evenodd" d="m45 18.1h-31c-.6 0-1 .4-1 1s.4 1 1 1h31c.6 0 1-.4 1-1s-.4-1-1-1zm9-15h-48c-2.2 0-4 1.8-4 4v35c0 2.2 1.8 4 4 4h11.6l9.6 9.6c1.6 1.6 4.1 1.6 5.7 0l9.6-9.6h11.5c2.2 0 4-1.8 4-4v-35c0-2.2-1.8-4-4-4zm2 39c0 1.1-.9 2-2 2h-12.4l-10.2 10.2c-.8.8-2 .8-2.8 0l-10.2-10.2h-12.4c-1.1 0-2-.9-2-2v-35c0-1.1.9-2 2-2h48c1.1 0 2 .9 2 2zm-15-14h-23c-.6 0-1 .4-1 1s.4 1 1 1h23c.6 0 1-.4 1-1s-.4-1-1-1z" fill="#fff" fill-rule="evenodd" opacity=".6"/></svg>