<svg enable-background="new 0 0 60 60" viewBox="0 0 60 60" xmlns="http://www.w3.org/2000/svg"><path clip-rule="evenodd" d="m48.4 32c3.1-2.2 5.1-5.7 5.1-10.1 0-7.5-5.8-13.5-13-13.5l.2 2c6 .1 10.8 5.2 10.8 11.5 0 4.5-2.5 7.9-6.2 9.5l-1.5.6c-.1 0-.3.1-.4.1l.2 1.4c.5-.1 1-.1 1.4-.1 6.9 0 12.5 7.8 12.5 15 0 5.4-2.8 4.2-6.9 4.1-.3.3-.2 1-.2 1.1v.9c5.3 0 9.1 1.1 9.1-6.1 0-7-4.7-14.3-11.1-16.4zm-14.4-.2c3.4-2.8 5.5-7.1 5.5-11.8 0-8.6-6.9-15.5-15.5-15.5s-15.5 6.9-15.5 15.5c0 4.7 2.1 9 5.5 11.8-8.2 4-13.5 12.4-13.5 19.7 0 4.7 10 4 23.5 4s23.5.7 23.5-4c0-7.3-5.4-15.7-13.5-19.7zm-23.5-11.8c0-7.5 6-13.5 13.5-13.5s13.5 6 13.5 13.5-6 13.5-13.5 13.5-13.5-6.1-13.5-13.5zm13.5 33.5c-12.4 0-21.5 1.1-21.5-2 0-6.8 5.3-14.9 13.4-18.3 2.4 1.5 5.1 2.3 8.1 2.3s5.7-.9 8.1-2.3c8.1 3.4 13.4 11.5 13.4 18.3 0 2.7-9.1 2-21.5 2z" fill="#fff" fill-rule="evenodd" opacity=".6"/></svg>